<?xml version="1.0" encoding="iso-8859-1"?>
<!-- Generator: Adobe Illustrator 16.0.0, SVG Export Plug-In . SVG Version: 6.00 Build 0)  -->
<!DOCTYPE svg PUBLIC "-//W3C//DTD SVG 1.1//EN" "http://www.w3.org/Graphics/SVG/1.1/DTD/svg11.dtd">
<svg version="1.1" id="Capa_1" xmlns="http://www.w3.org/2000/svg" xmlns:xlink="http://www.w3.org/1999/xlink" x="0px" y="0px"
	 width="270.116px" height="270.115px" viewBox="0 0 270.116 270.115" style="enable-background:new 0 0 270.116 270.115;"
	 xml:space="preserve">
<g>
	<g>
		<path d="M209.358,7.752c0-0.3,0-0.5,0-0.8c0-0.8-0.2-1.5-0.5-2.1c-0.301-2.2-1.7-4.3-4.5-4.5c-30.2-2.5-58.101,8.9-87.2,15.1
			c-20,4.2-37.1,8.9-49.8,22.5c-10.8-4.5-22.7-5.8-30.8,2.1c-6.5,6.4-11.8,18.6-6.9,27.4c1.7,3.1,4.3,5.6,7.2,7.5
			c-1.9,4.9-2.2,10.3-0.7,15.3c-1.3,1.2-2.5,2.4-3.5,3.7c-5.1,6.4-7.9,14.5-4.4,22.4c1.8,4,5.1,6.4,9,7.8c-0.1,0.2-0.2,0.4-0.3,0.6
			c-3.2,6.4-4.2,13.8-1.5,20.5c-1.9,2.2-3.6,4.7-4.9,7.5c-3.3,6.9-4.3,15.601,0.2,22.301c0.8,1.3,2,2.399,3.2,3.399
			c-0.1,0.101-0.1,0.2-0.2,0.4c-3.1,6.899-3.9,15.3,0.8,21.7c0.3,0.399,0.6,0.699,0.9,1c0,0.1-0.1,0.199-0.2,0.3
			c-2.9,7.8-1.7,16.399,3.5,22.8c5.1,6.3,20.9,11.2,27.2,5.1c-0.5,2.301,0.3,4.7,2.6,5.601c2.3,17.399,11.4,30.1,30.6,32.2
			c41.2,4.399,85.6,2.899,126.7-2.7c3-0.4,4.399-4.3,3.3-6.9c1.7-0.399,3.1-1.6,2.899-3.6c-6-52,5.7-106.5,10.5-158.5
			C246.557,51.652,236.757,38.252,209.358,7.752z M39.258,57.452c1.3-6.4,5.4-11,11.9-11.7c3.2-0.4,6.4-0.1,9.7,0.6
			c-0.6,1-1.3,1.8-1.9,2.9c-1.8,3.2-3.2,6.9-4.4,10.7c-3.5,0.5-7,1.9-10.3,4.6c-0.5,0.4-1,1-1.5,1.5
			C40.058,64.552,38.358,62.252,39.258,57.452z M56.158,199.252c-2.1-0.6-4.7-0.699-7-1.199c1.7-2,3.7-3.601,5.9-4.7
			C55.458,195.252,55.758,197.252,56.158,199.252z M49.958,154.553c0.1,2.3,0.4,4.6,0.6,7c-4,2.1-7.7,5-10.7,8.199
			c-0.2-0.199-0.5-0.399-0.7-0.699c-2.5-3.801-0.6-9.301,1.3-12.9c0.6-1.2,1.3-2.2,2.1-3.3
			C44.958,153.952,47.458,154.652,49.958,154.553z M44.358,137.952c-0.2-3,0.8-6.1,2.1-8.7c0.6-1.2,1.3-2.4,2.1-3.5
			c0.2,0,0.5,0,0.7,0c0,0.1,0,0.3,0,0.4c0,3.1,0.1,6.3,0.2,9.5C47.658,136.353,45.958,137.053,44.358,137.952z M50.258,82.952
			c-1.6,0.3-3.1,0.7-4.6,1.3c0-0.9-0.1-1.7,0-2.5c0.2-1.3,0.6-2.5,1.1-3.7c1.3,0,2.6-0.1,3.8-0.4
			C50.558,79.353,50.458,81.152,50.258,82.952z M37.658,108.252c0.1-0.5,0.2-1.1,0.4-1.6c0.5-1.6,2.1-4.4,3.2-5.7
			c0.3-0.4,0.7-0.7,1.1-1.1c2,1.6,4.4,2.7,6.9,3c0,3.1,0,6,0,8.9c-1.7,0.8-3.2,1.9-4.6,3.1c-0.9-0.2-1.9-0.4-2.8-0.6
			c-2.1-0.7-3.1-1.6-3.9-3.1c-0.1-0.2-0.2-0.5-0.2-0.7c-0.1-0.2-0.1-0.2-0.1-0.2c0-0.1,0-0.2,0-0.6
			C37.558,109.353,37.658,108.452,37.658,108.252z M43.358,182.452c3.3,0.5,6.7,0.2,9.5-1.3c0.1,0.6,0.2,1.2,0.3,1.8
			c-4.3,1.7-8.3,4.7-11.6,8.4C41.158,188.353,42.158,185.053,43.358,182.452z M46.858,217.752c-2.9-2.699-2.9-6.899-2.1-10.6
			c4.3,1.1,9,0.8,12.9-1.1c1.4,5.5,3.1,10.899,5,16.199C57.558,220.652,51.358,222.053,46.858,217.752z M69.458,225.652
			c-1.7-11.6-3.3-23.1-4.8-34.6c3,0,6,0.5,9,1.5c2.5,0.899,4.1-2.5,2.5-4.2c-3.9-4.2-8.2-6.2-12.6-6.8c-0.6-4.7-1.2-9.301-1.7-14
			c4.7-0.9,9.3-0.5,14.3-0.801c1.8-0.1,3.2-2.5,1.6-3.8c-5-4.399-10.9-5.6-16.8-4.8c-0.4-5-0.9-10-1.2-15c5.2-0.5,10.4,0.7,15.7,2
			c2.4,0.6,4.7-2.6,2.6-4.4c-5.6-4.6-12.2-6.7-18.7-6.6c-0.2-3.9-0.5-7.8-0.5-11.8c0.2-0.8,0.2-1.6,0-2.5c0-0.3,0-0.6,0-1
			c4.1-0.9,8.7-0.2,13.1,2.8c1,0.7,2.3-0.7,1.7-1.7c-3.7-5.8-8.3-9.7-14.6-10.2c0.1-5.4,0.3-10.9,0.8-16.3c4.2,1.2,7.7,4.3,12,6.6
			c1,0.6,2.6-0.1,2.5-1.4c-0.7-7.4-6.7-12.7-13.4-14.9c0.4-3.8,0.8-7.5,1.4-11.3c0.1-0.8,0.3-1.5,0.5-2.3c5.1,1.2,9.5,5,13.6,8.3
			c2.2,1.8,5.2-0.4,3.9-3c-3.5-6.7-9.1-11.8-15.4-14.3c1.6-4.5,3.5-8.5,5.9-11.9c4.6,1.8,9.1,4,13,6c2.9,1.5,6.2-2.3,3.6-4.6
			c-2.9-2.6-6.6-5.4-10.8-7.9c13.4-12.5,33.7-15.7,54-20c23.399-4.9,44.7-13.2,68.7-12.9c-0.601,54.1-0.601,108-3.9,162
			c-0.9,14.7-2.4,29.399-3.9,44.1c-1.6,15.8-29,9.7-37.6,9.4c-28-0.9-55.3-3.2-83.3-0.2
			C70.258,225.252,69.858,225.452,69.458,225.652z M143.358,258.452c-26.6-0.2-56.6,5-68.6-23.2c39.3-2.899,78.5,2.5,117.9,0.5
			c5.3,7.9,14.5,13,21.8,19.9C190.757,258.252,167.057,258.652,143.358,258.452z M230.057,118.652c-2.1,44.4-14.1,86.9-6.6,131.1
			c-6.2-7.8-14.5-15.8-22.9-19.899c8.101-68.5,9.4-137.5,8.9-206.5c4,4.6,8.4,9,12.5,13.6
			C241.057,58.252,231.257,93.652,230.057,118.652z"/>
		<path d="M163.358,189.353c6.399-13.601,10.3-33.7-3.7-41.7c-4.601-2.6-7.9-3-13.101-2c-2.199,0.4-5.5,2.3-7.399,3.3
			c-17.8,9-14.3-31.5-12.9-39c2.5-13.3,7.7-26.8,19.299-20.8c3.7,1.9,7.301,2.1,10.601-1.2c7.1-7.1,14.7-28.2,8.5-38.2
			c0.1-0.9,0-1.8-0.601-2.8c-7.6-13.3-26.3-20-38.599-8.3c-17.1,16.1-22.4,42.5-26.4,64.7c-7.1,39.6,2.6,115.2,54.1,96
			c1.7,0.8,3.8,0.5,5.3-1.601c0.2-0.3,0.5-0.699,0.7-1c1.5-0.699,2.899-1.399,4.399-2.3
			C165.958,193.152,165.257,190.252,163.358,189.353z"/>
	</g>
</g>
<g>
</g>
<g>
</g>
<g>
</g>
<g>
</g>
<g>
</g>
<g>
</g>
<g>
</g>
<g>
</g>
<g>
</g>
<g>
</g>
<g>
</g>
<g>
</g>
<g>
</g>
<g>
</g>
<g>
</g>
</svg>
