<?xml version="1.0" encoding="iso-8859-1"?>
<!-- Generator: Adobe Illustrator 16.0.0, SVG Export Plug-In . SVG Version: 6.00 Build 0)  -->
<!DOCTYPE svg PUBLIC "-//W3C//DTD SVG 1.1//EN" "http://www.w3.org/Graphics/SVG/1.1/DTD/svg11.dtd">
<svg version="1.1" id="Capa_1" xmlns="http://www.w3.org/2000/svg" xmlns:xlink="http://www.w3.org/1999/xlink" x="0px" y="0px"
	 width="269.913px" height="269.913px" viewBox="0 0 269.913 269.913" style="enable-background:new 0 0 269.913 269.913;"
	 xml:space="preserve">
<g>
	<g>
		<path d="M257.656,78.489c-41.8-34.7-88.9-61.2-140.4-78.3c-1.9-0.6-3.4,0.3-4.3,1.7c-0.7-0.4-1.5-0.7-2.4-0.8
			c-18.1-1.7-36.3,26.2-45.7,38.2c-18.8,24.1-34,50.7-52.7,74.8c-2.1,2.7-2.7,6.4,0,9.1c5.9,5.8,11.9,10.3,19.2,14.201
			c2,1.1,4.1,0.399,5.3-0.9c1.8,0.2,3.7-0.3,5-2.2c3.2-4.5,6.4-9,9.7-13.4c-3.3,43.6,1.9,87.8-6.6,131.3c-0.9,4.5,2.9,7.399,6.4,7.3
			c14.8,17.1,71.2,8.2,88.7,7.4c16.2-0.7,69.2,3.5,79.899-13.4c1.7-2.7,1.101-5.5-0.5-7.5c13.5-47.5-7.699-105.8,2.2-152.1
			c1.7,1.1,3.5,2.2,5.3,3c2.7,2.2,5.4,4.4,8.2,6.5c1.7,1.2,4.8,1.2,6.5,0c7.2-5.2,12.601-9.8,17.3-17.3
			C260.056,83.989,259.856,80.289,257.656,78.489z M110.656,251.89c1.9-17.801-2.9-40.4,13.8-49.4c-1.8,10.1-1.5,21-1.3,30.9
			c0.1,4.899-0.3,12.899,1.6,19.1C120.056,252.39,115.356,252.189,110.656,251.89z M151.255,239.489c0,2.2-0.199,4.4-0.399,6.6
			c-0.101,0.601-0.101,0.9-0.101,1.301c-0.699,0.699-1.199,1.6-1.199,2.699c0,0.7,0.199,1.4,0.5,2c-6,0.101-11.301,0.101-15.1,0.2
			c-1.4-17.3-4-35.1-2.8-52.6c12.7-1.4,18.2,17.8,18.9,27.5C151.356,231.289,151.356,235.39,151.255,239.489z M207.255,139.289
			c-0.3,35.101-1.1,70.8,1.601,105.9c-5.101,5.2-28,6.399-48.101,6.8c1.301-3.1,1.301-7.3,1.4-10.1c0.8-16.601-1.5-34.7-14.2-46.601
			c-13.299-12.5-34.1-3.3-41.899,10.601c-6.8,12.199-7,30.6-3.9,45.399c-15.3-1.2-30.8-2.7-45.2-1.5c8.1-46.8,5.2-95.8,4.7-143.4
			c18.5-25.7,37-51.2,57.1-75.8c13.9,8.8,29.6,16.1,44.6,23.4c16.899,8.2,31.5,20.9,46.7,31.8l0.1,0.1
			C203.856,100.189,207.356,130.589,207.255,139.289z"/>
		<path d="M100.556,134.389c-1.8-0.6-3.2-0.2-4.2,0.7c-12.7-2-24.3,6.4-27.8,20.101c-3.9,15.2,8,30.8,23.3,31.8
			c12.6,0.9,23.1-10.4,26.9-21.4C123.856,150.989,114.056,138.89,100.556,134.389z M98.256,144.39c6.2,2.3,10.6,6.5,11.1,12.5
			c-0.2,0-0.4-0.101-0.7-0.101c-3.7,0.5-7.5,0.8-11.2,1C97.856,153.289,98.256,148.789,98.256,144.39z M88.756,144.489
			c-0.4,4.4-0.6,8.9-0.7,13.4c-3,0-6.1-0.2-9.1-0.4C79.956,152.089,83.756,147.39,88.756,144.489z M78.856,163.089
			c3,0.601,6,1,9.1,1.4c0,3.7,0,7.5,0.1,11.2C83.256,173.689,79.856,168.289,78.856,163.089z M95.456,175.989
			c0.3-3.5,0.7-6.9,1.1-10.4c3.5,0.4,6.9,0.801,10.4,1.2C104.456,171.089,100.256,174.589,95.456,175.989z"/>
		<path d="M173.956,128.389c-2.899-1-5,0.4-6,2.4c-10.7,0-21.2,10.8-25.1,21.101c-5.8,15.1,1.1,33.899,18.899,35.6
			c14.5,1.4,26.101-10.5,31.101-23C199.356,148.39,189.356,133.389,173.956,128.389z M171.156,139.689c0.3,0,0.6-0.2,0.9-0.2
			c7.199,3.2,11.8,8.3,11.399,15.8c-4.2-1.1-10.2,0-14,0.2c0.2-2.5,0.4-5,0.7-7.5C170.356,146.289,171.056,142.89,171.156,139.689z
			 M160.856,155.489c-2.7,0-5.4,0.3-7.8,0.9c1.5-4.301,4.199-8.4,7.699-11.5c0,1.199,0,2.3,0,3.1
			C160.755,150.39,160.856,152.989,160.856,155.489z M152.056,163.289c2.8,0.9,6,1.101,9.1,1.101c0.2,4.1,0.6,8.1,1,12.1
			C155.956,175.789,152.456,169.489,152.056,163.289z M167.856,175.789c0.399-3.7,0.6-7.5,0.899-11.3c3.2,0.2,7.601,0.9,11.601,0.7
			C177.456,169.989,173.056,173.989,167.856,175.789z"/>
		<path d="M134.556,65.389c-2.4,0.6-4.8,2.8-5.2,5.2c-1.2,6.2-1.6,12.6-1.8,18.9c-2.2-0.5-4.4-0.9-6.6-1.2c-3.5-0.5-7-0.1-9.9,1.4
			c0.9-5.5,3.1-10.7,3.4-16.2c0.2-4-3.9-6.5-7.5-5.7c-8.6,2-10,12.6-10.8,20c-1.2,10.2-1.1,20.8,2.1,30.7c2.7,8.4,14.8,5,13.1-3.6
			c-0.8-4.3-1.1-8.8-1.1-13.3c0.2,0.1,0.4,0.3,0.6,0.3c0.5,0.1,1,0.2,1.5,0.2c1.2-0.1,2.2-0.2,3.3-0.8c-1.6,1,1.2-0.2-0.1-0.1
			c1.7-0.2,3,0.1,4.6,0.4c2.5,0.5,4.9,1.3,7.2,2.4c0.1,5.9,0.9,12.4,4.6,15.7c2.4,2.1,6.9,2.2,8.5-1.1c1.8-3.9,1.3-8.2,1.3-12.4
			c0.101-6.3,0.301-12.6,0.7-19C142.856,80.889,147.656,61.889,134.556,65.389z"/>
	</g>
</g>
<g>
</g>
<g>
</g>
<g>
</g>
<g>
</g>
<g>
</g>
<g>
</g>
<g>
</g>
<g>
</g>
<g>
</g>
<g>
</g>
<g>
</g>
<g>
</g>
<g>
</g>
<g>
</g>
<g>
</g>
</svg>
