<?xml version="1.0" encoding="utf-8"?>
<!-- Generator: Adobe Illustrator 16.0.4, SVG Export Plug-In . SVG Version: 6.00 Build 0)  -->
<!DOCTYPE svg PUBLIC "-//W3C//DTD SVG 1.1//EN" "http://www.w3.org/Graphics/SVG/1.1/DTD/svg11.dtd">
<svg version="1.1" id="Capa_1" xmlns="http://www.w3.org/2000/svg" xmlns:xlink="http://www.w3.org/1999/xlink" x="0px" y="0px"
	 width="100px" height="100px" viewBox="0 0 100 100" enable-background="new 0 0 100 100" xml:space="preserve">
<path fill="#FF1493" d="M90.311,49.597c-1.338,0-2.422,1.085-2.422,2.421v43.141H61.905V68.077c0-1.337-1.084-2.421-2.421-2.421
	H40.516c-1.337,0-2.421,1.084-2.421,2.421V89.55c0,1.337,1.084,2.421,2.421,2.421c1.337,0,2.421-1.084,2.421-2.421V70.498h14.125
	v24.66H12.111V35.889L50,5.525l38.796,31.091c1.044,0.837,2.567,0.668,3.403-0.375c0.836-1.044,0.668-2.567-0.375-3.404
	L51.514,0.532c-0.885-0.709-2.144-0.709-3.028,0L8.175,32.837c-0.573,0.459-0.907,1.154-0.907,1.89v62.852
	c0,1.338,1.084,2.422,2.421,2.422h80.621c1.338,0,2.422-1.084,2.422-2.422V52.018C92.732,50.681,91.648,49.597,90.311,49.597z"/>
</svg>
