<?xml version="1.0" encoding="iso-8859-1"?>
<!-- Generator: Adobe Illustrator 16.0.0, SVG Export Plug-In . SVG Version: 6.00 Build 0)  -->
<!DOCTYPE svg PUBLIC "-//W3C//DTD SVG 1.1//EN" "http://www.w3.org/Graphics/SVG/1.1/DTD/svg11.dtd">
<svg version="1.1" id="Capa_1" xmlns="http://www.w3.org/2000/svg" xmlns:xlink="http://www.w3.org/1999/xlink" x="0px" y="0px"
	 width="269.95px" height="269.951px" viewBox="0 0 269.95 269.951" style="enable-background:new 0 0 269.95 269.951;"
	 xml:space="preserve">
<g>
	<g>
		<g>
			<path d="M98.292,185.668c-0.1-0.1-0.2-0.1-0.2-0.199c0,0-0.1,0-0.1-0.101C98.192,185.569,98.292,185.668,98.292,185.668z"/>
			<path d="M174.692,144.369c20.399-48.8,30.7-113.899-14.5-127.8c-36.3-11.2-70.8,19.9-73.4,54.6c-1.4,20,1.5,43.3,8.6,65.2
				c-0.4,0-0.8-0.1-1.2,0c-2.7,0.5-5.5,1-8.2,1.5c-8.9-2.5-21.8,1.101-29.1,1.9c-23.1,2.6-42.9,12.6-53.4,34.399
				c-19.7,40.601,49.1,70.801,77.5,74.5c54.1,7.101,152.099,22.2,183.9-37.899C291.692,160.269,204.692,147.469,174.692,144.369z
				 M117.592,36.969c12.7-9.8,37.5-13,50-2c32.601,28.7-7.3,123.5-30.5,148.6c-0.1,0.1-0.1,0.3-0.199,0.4
				c-21.4-26.301-33.9-59.4-37.3-93C97.592,71.369,100.993,49.769,117.592,36.969z M123.692,224.168c-22.2-1.3-44.8-2.199-65.2-12.1
				c-31.3-15.2,0.8-45.3,21.1-51.1c7.6-2.2,15.6-3.5,23.5-4.7c1.9,4.1,4,8.1,6.3,11.899c-13.1-2.8-29,6.4-25.2,21.7
				c3.5,14.2,28.2,15.601,39.4,17.601c16.3,3,48.7,6,58.5-12.101c8.101-15-2.1-30.7-16.699-30.8c0.3-0.6,0.6-1.2,0.899-1.8
				c0.5,0.2,0.9,0.5,1.4,0.6c19.899,4.5,86.399,23.2,41.5,55.4C189.192,233.168,147.192,225.469,123.692,224.168z M241.692,218.869
				c3.399-4.7,5.8-9.8,6.899-14.399c2.2-10-1.3-20.2-7.699-28.5c1.199,0.8,2.399,1.5,3.6,2.399
				C252.792,195.969,251.792,209.469,241.692,218.869z"/>
		</g>
		<path d="M167.292,62.869c-2-3.2-4.6-5.8-7.5-8c0.5-1.5,0.2-3.2-1.399-4.1c-8.4-4.4-16.101-8.1-25.8-6
			c-10.3,2.3-17.8,8.6-22.9,17.7c-8.6,15.1-5.3,35.3,9.3,45.3c13.1,9,29.599,8.4,41.9-1.6
			C173.092,96.069,175.393,75.969,167.292,62.869z"/>
	</g>
</g>
<g>
</g>
<g>
</g>
<g>
</g>
<g>
</g>
<g>
</g>
<g>
</g>
<g>
</g>
<g>
</g>
<g>
</g>
<g>
</g>
<g>
</g>
<g>
</g>
<g>
</g>
<g>
</g>
<g>
</g>
</svg>
