<?xml version="1.0" encoding="iso-8859-1"?>
<!-- Generator: Adobe Illustrator 16.0.0, SVG Export Plug-In . SVG Version: 6.00 Build 0)  -->
<!DOCTYPE svg PUBLIC "-//W3C//DTD SVG 1.1//EN" "http://www.w3.org/Graphics/SVG/1.1/DTD/svg11.dtd">
<svg version="1.1" id="Capa_1" xmlns="http://www.w3.org/2000/svg" xmlns:xlink="http://www.w3.org/1999/xlink" x="0px" y="0px"
	 width="279.952px" height="279.952px" viewBox="0 0 279.952 279.952" style="enable-background:new 0 0 279.952 279.952;"
	 xml:space="preserve">
<g>
	<g>
		<path d="M182.748,2.821c-80.6-16.3-165.399,39.8-173.3,122.8c-7.8,82.3,46.9,161.6,135.4,153.8c1.899-0.2,3.3-0.899,4.399-1.7
			C285.148,277.421,322.948,31.121,182.748,2.821z M148.248,258.32c-4,0-6.5,2-8,4.601c-70.4-7.101-114.5-56.101-112.4-128.3
			c2.3-81,83.9-127.4,158.199-112.2C300.748,45.821,256.849,259.32,148.248,258.32z"/>
		<path d="M89.148,90.721c-5-5.3-9.7-7-16.9-5.9c-6.2,1-9.2,7.4-9.8,12.9c0,0.3-0.1,0.5-0.1,0.8c-0.6,5.3,4.2,10.5,9,11.8
			c0.3,0.1,0.2,0,0.3,0.1C84.349,119.521,100.648,102.921,89.148,90.721z"/>
		<path d="M196.148,73.021c-1.101,0-2.3,0-3.4-0.1c-17.399-0.3-17.399,27.3,0,27c1.101,0,2.3,0,3.4-0.1
			C213.548,99.621,213.548,73.321,196.148,73.021z"/>
		<path d="M216.048,151.421C215.948,151.421,215.948,151.421,216.048,151.421c1.4-5.8-1.699-13.2-9.5-13.6
			c-43.6-2.4-86.5,9.3-130,8.201c-1.7-1-3.9-1-5.8-0.101c-0.4,0-0.8,0-1.2,0c-6-0.3-7,7-3.2,10.101c-1.7,42,37,65,76.199,61.799
			c18.9-1.6,38.7-9.1,53.301-21.299C206.248,187.721,226.548,166.021,216.048,151.421z M188.148,176.721
			c-10.101,11.1-24.9,17.1-39.2,20.7c-34.3,8.601-55.6-8-66.3-36.399c37.7,7.899,77.5-2.5,115.899-2.5
			C195.448,164.521,193.048,171.421,188.148,176.721z"/>
	</g>
</g>
<g>
</g>
<g>
</g>
<g>
</g>
<g>
</g>
<g>
</g>
<g>
</g>
<g>
</g>
<g>
</g>
<g>
</g>
<g>
</g>
<g>
</g>
<g>
</g>
<g>
</g>
<g>
</g>
<g>
</g>
</svg>
